<svg width="46" height="45" viewBox="0 0 46 45" fill="none" xmlns="http://www.w3.org/2000/svg">
<g clip-path="url(#clip0_1_203)">
<path d="M30.5833 21.4583H17.735L21.6675 16.9167C21.8514 16.7039 21.9398 16.4297 21.9134 16.1542C21.887 15.8788 21.7479 15.6247 21.5267 15.4479C21.3054 15.2711 21.0202 15.186 20.7337 15.2114C20.4473 15.2368 20.183 15.3706 19.9992 15.5833L14.5825 21.8333C14.5461 21.883 14.5135 21.9353 14.485 21.9896C14.485 22.0417 14.485 22.0729 14.4092 22.125C14.3601 22.2444 14.3344 22.3716 14.3333 22.5C14.3344 22.6284 14.3601 22.7556 14.4092 22.875C14.4092 22.9271 14.4092 22.9583 14.485 23.0104C14.5135 23.0647 14.5461 23.117 14.5825 23.1667L19.9992 29.4167C20.101 29.5343 20.2286 29.6288 20.3727 29.6936C20.5169 29.7584 20.6742 29.7919 20.8333 29.7917C21.0865 29.7921 21.3318 29.7074 21.5267 29.5521C21.6364 29.4646 21.727 29.3572 21.7935 29.236C21.86 29.1149 21.9009 28.9822 21.914 28.8458C21.9271 28.7094 21.912 28.5718 21.8697 28.441C21.8274 28.3101 21.7587 28.1886 21.6675 28.0833L17.735 23.5417H30.5833C30.8706 23.5417 31.1462 23.4319 31.3494 23.2366C31.5525 23.0412 31.6667 22.7763 31.6667 22.5C31.6667 22.2237 31.5525 21.9588 31.3494 21.7634C31.1462 21.5681 30.8706 21.4583 30.5833 21.4583Z" fill="black"/>
</g>
<defs>
<clipPath id="clip0_1_203">
<rect width="26" height="25" fill="white" transform="translate(10 10)"/>
</clipPath>
</defs>
</svg>
