<svg width="22" height="22" viewBox="0 0 22 22" fill="none" xmlns="http://www.w3.org/2000/svg">
<path d="M16.368 2.63802H18.0227C19.1171 2.63802 20.1117 3.15054 20.8322 3.97566C21.5525 4.80077 22 5.94032 22 7.19357V17.4443C22 18.6979 21.5526 19.8371 20.8323 20.6622C20.1119 21.4875 19.1171 22 18.0227 22H3.97732C2.88287 22 1.88829 21.4875 1.16792 20.6622C0.447456 19.8371 0 18.6979 0 17.4443V7.19357C0 5.93998 0.447456 4.80066 1.16792 3.97554C1.88829 3.15031 2.88287 2.63802 3.97732 2.63802H5.63214C5.78852 2.05767 6.09405 1.5471 6.46984 1.13437C7.1088 0.432159 7.98595 0 8.66506 0H13.3348C14.014 0 14.8912 0.432159 15.5301 1.13437C15.9058 1.5471 16.2113 2.05767 16.3679 2.63802H16.368ZM11 6.7667C12.3383 6.7667 13.5504 7.38833 14.4276 8.39302C15.3048 9.39783 15.8475 10.7862 15.8475 12.3191C15.8475 13.852 15.3048 15.2403 14.4276 16.2451C13.5502 17.2498 12.3385 17.8714 11 17.8714C9.66155 17.8714 8.44976 17.2498 7.57242 16.2451C6.69527 15.2402 6.15256 13.8521 6.15256 12.3191C6.15256 10.786 6.69527 9.39794 7.57242 8.39302C8.44956 7.38833 9.66175 6.7667 11 6.7667ZM13.3732 9.60086C12.766 8.90542 11.9269 8.47533 11 8.47533C10.0732 8.47533 9.23397 8.90542 8.62682 9.60086C8.01987 10.2963 7.64418 11.2575 7.64418 12.3191C7.64418 13.3806 8.01987 14.342 8.62682 15.0373C9.23397 15.7326 10.0732 16.1629 11 16.1629C11.9267 16.1629 12.766 15.7326 13.3732 15.0373C13.9803 14.342 14.3558 13.3807 14.3558 12.3191C14.3558 11.2574 13.9803 10.2963 13.3732 9.60086ZM18.0227 4.34654H15.7355C15.3237 4.34654 14.9898 3.96405 14.9898 3.49234C14.9898 3.07064 14.7831 2.67435 14.4988 2.36222C14.1308 1.95765 13.6673 1.70863 13.3349 1.70863H8.66516C8.33283 1.70863 7.86932 1.95765 7.50125 2.36222C7.217 2.67447 7.01034 3.07064 7.01034 3.49234C7.01034 3.96405 6.6764 4.34654 6.26458 4.34654H3.97742C3.29449 4.34654 2.67309 4.66718 2.22242 5.18338C1.77176 5.6997 1.49172 6.41145 1.49172 7.19369V17.4445C1.49172 18.2265 1.77176 18.9384 2.22242 19.4546C2.67319 19.9708 3.29459 20.2916 3.97742 20.2916H18.0228C18.7057 20.2916 19.3273 19.9708 19.7779 19.4546C20.2286 18.9383 20.5085 18.2267 20.5085 17.4445V7.19369C20.5085 6.41168 20.2285 5.6997 19.7778 5.18361C19.327 4.6673 18.7056 4.34654 18.0228 4.34654H18.0227Z" fill="#979797"/>
</svg>
